<svg width="66" height="65" xmlns="http://www.w3.org/2000/svg" xmlns:xlink="http://www.w3.org/1999/xlink" xml:space="preserve" overflow="hidden"><defs><clipPath id="clip0"><rect x="616" y="444" width="66" height="65"/></clipPath></defs><g clip-path="url(#clip0)" transform="translate(-616 -444)"><path d="M55.9609 42.4057C54.2818 41.5255 47.7073 39.3115 42.1823 37.1651 40.8281 36.6302 39.6161 35.6417 39.3792 34.1927 39.1016 32.5135 40.2661 31.3286 41.5052 30.2453 44.8906 27.2526 48.2354 26.4536 49.5896 25.0995 52.2793 22.5016 52.3538 18.2152 49.756 15.5255 47.1582 12.8358 42.8718 12.7613 40.182 15.3591 40.1256 15.4136 40.0701 15.4691 40.0156 15.5255 39.3385 16.2026 38.526 17.5568 37.4156 18.9719 33.5766 23.7859 32.6151 24.3005 29.8932 24.3005L29.8932 24.3005C28.2996 24.2599 26.9037 23.2218 26.4062 21.7073 24.8557 17.3604 23.0208 12.025 22.2625 10.6099 20.7779 7.94368 17.4131 6.98574 14.7469 8.47031 12.0807 9.95488 11.1227 13.3197 12.6073 15.9859 14.0671 18.1366 15.7314 20.1411 17.5771 21.9714 18.9615 23.3647 19.576 25.3476 19.2224 27.2797 18.6369 30.1811 15.9614 32.1766 13.0135 31.9109 12.3365 31.8568 11.8219 31.8229 11.524 31.8229 9.22045 31.8229 7.35312 33.6902 7.35312 35.9937 7.35312 38.2973 9.22045 40.1646 11.524 40.1646 12.1604 40.1646 13.8125 40.0224 15.8708 39.7651 17.5613 39.5369 19.2049 40.4299 19.9333 41.9724 20.6104 43.4146 19.9333 44.8365 19.2563 46.2854 18.8104 47.227 18.292 48.1325 17.7057 48.9937 16.8939 50.561 17.5063 52.4896 19.0736 53.3014 20.5419 54.0619 22.3479 53.5768 23.2375 52.1828 23.7521 51.2891 24.2328 48.5333 26.1286 44.7349 26.3672 44.1459 26.8126 43.6644 27.3812 43.3807 28.5418 42.8896 29.8808 43.4323 30.3719 44.5928 30.4101 44.6832 30.4425 44.7759 30.4688 44.8703 30.6854 45.6016 30.8885 46.2245 31.024 46.5427 31.7488 47.9822 33.5034 48.5615 34.9429 47.8365 36.189 47.2091 36.8166 45.7873 36.4406 44.4437 36.3059 44.1405 36.1474 43.8485 35.9667 43.5703 35.5111 42.8834 35.6583 41.9618 36.3052 41.451 36.9452 41.0256 37.797 41.1136 38.3365 41.6609 43.1844 45.8318 48.987 51.2214 50.7812 52.176 53.4397 53.6738 56.8091 52.7329 58.3068 50.0744 59.8047 47.416 58.8637 44.0467 56.2053 42.5489 56.1161 42.4986 56.0257 42.4509 55.9339 42.4057Z" fill="#000000" fill-rule="nonzero" fill-opacity="1" transform="matrix(1.01538 0 0 1 616 444)"/><path d="M35.1 13.5417C35.1 15.0374 33.8874 16.25 32.3917 16.25 30.8959 16.25 29.6833 15.0374 29.6833 13.5417 29.6833 12.0459 30.8959 10.8333 32.3917 10.8333 33.8874 10.8333 35.1 12.0459 35.1 13.5417Z" fill="#000000" fill-rule="nonzero" fill-opacity="1" transform="matrix(1.01538 0 0 1 616 444)"/><path d="M13.4333 23.8401C13.4333 25.7883 11.854 27.3677 9.90573 27.3677 7.95749 27.3677 6.37812 25.7883 6.37812 23.8401 6.37812 21.8919 7.95749 20.3125 9.90573 20.3125 11.854 20.3125 13.4333 21.8919 13.4333 23.8401Z" fill="#000000" fill-rule="nonzero" fill-opacity="1" transform="matrix(1.01538 0 0 1 616 444)"/><path d="M12.7562 46.0417C12.7562 46.7896 12.15 47.3958 11.4021 47.3958 10.6542 47.3958 10.0479 46.7896 10.0479 46.0417 10.0479 45.2938 10.6542 44.6875 11.4021 44.6875 12.15 44.6875 12.7562 45.2938 12.7562 46.0417Z" fill="#000000" fill-rule="nonzero" fill-opacity="1" transform="matrix(1.01538 0 0 1 616 444)"/><path d="M30.3604 54.5052C30.3604 55.0661 29.9057 55.5208 29.3448 55.5208 28.7839 55.5208 28.3292 55.0661 28.3292 54.5052 28.3292 53.9443 28.7839 53.4896 29.3448 53.4896 29.9057 53.4896 30.3604 53.9443 30.3604 54.5052Z" fill="#000000" fill-rule="nonzero" fill-opacity="1" transform="matrix(1.01538 0 0 1 616 444)"/><path d="M43.225 55.8594C43.225 57.1682 42.164 58.2292 40.8552 58.2292 39.5464 58.2292 38.4854 57.1682 38.4854 55.8594 38.4854 54.5506 39.5464 53.4896 40.8552 53.4896 42.164 53.4896 43.225 54.5506 43.225 55.8594Z" fill="#000000" fill-rule="nonzero" fill-opacity="1" transform="matrix(1.01538 0 0 1 616 444)"/><path d="M52.7042 34.5312C52.7042 35.2791 52.0979 35.8854 51.35 35.8854 50.6021 35.8854 49.9958 35.2791 49.9958 34.5312 49.9958 33.7834 50.6021 33.1771 51.35 33.1771 52.0979 33.1771 52.7042 33.7834 52.7042 34.5312Z" fill="#000000" fill-rule="nonzero" fill-opacity="1" transform="matrix(1.01538 0 0 1 616 444)"/></g></svg>